<svg xmlns="http://www.w3.org/2000/svg" viewBox="0 0 42 42"><defs><style>.cls-1{fill:none;}.cls-2{fill:#606a72;}</style></defs><title>nav06_pc_off</title><g id="レイヤー_2" data-name="レイヤー 2"><g id="レイヤー_1-2" data-name="レイヤー 1"><rect class="cls-1" width="42" height="42"/><path class="cls-2" d="M37.25,9.3a.5.5,0,0,0-.5-.5H5.25a.5.5,0,0,0-.5.5V31.68h0a.43.43,0,0,0,0,.19A.42.42,0,0,0,4.9,32h0l0,0a.6.6,0,0,0,.13.09.63.63,0,0,0,.19,0h31.5a.63.63,0,0,0,.19,0,.6.6,0,0,0,.13-.09l0,0h0a.42.42,0,0,0,.11-.16.43.43,0,0,0,0-.19h0ZM28,22.12a.5.5,0,0,0-.71,0,.48.48,0,0,0,0,.7l8.27,8.36H6.45l8.27-8.36a.48.48,0,0,0,0-.7.5.5,0,0,0-.71,0L5.75,30.47V14L20.93,24.22a.48.48,0,0,0,.56,0L36.25,14V30.47ZM36.25,9.8v3L21.2,23.2,5.75,12.77v-3Z"/></g></g></svg>