<svg xmlns="http://www.w3.org/2000/svg" viewBox="0 0 50 42"><defs><style>.cls-1{fill:none;}.cls-2{fill:#8cc63f;}</style></defs><title>nav02_pc_on</title><g id="レイヤー_2" data-name="レイヤー 2"><g id="レイヤー_1-2" data-name="レイヤー 1"><rect class="cls-1" width="50" height="42"/><polygon class="cls-2" points="22.28 13.74 8.91 24.22 20.22 24.22 22.28 13.74"/><path class="cls-2" d="M25.31,13.52l-1.8,10.7H43V13.52H41.18V8.79h2.7V6.09H24.08v2.7h3.54v4.73Zm3.21-4.73H40.28v4.73H28.52Z"/><path class="cls-2" d="M7.53,11.18a2.43,2.43,0,1,0-1-3.27A2.43,2.43,0,0,0,7.53,11.18Z"/><path class="cls-2" d="M11,17.34a2.43,2.43,0,1,0-3.27,1.05A2.42,2.42,0,0,0,11,17.34Z"/><path class="cls-2" d="M13.79,14.66a2.44,2.44,0,1,0-1-3.28A2.45,2.45,0,0,0,13.79,14.66Z"/><path class="cls-2" d="M41.18,27.2H16.88a3.6,3.6,0,0,0,0,7.2h24.3a3.6,3.6,0,1,0,0-7.2ZM19.49,31.25a1.16,1.16,0,1,1-.61-1.52A1.16,1.16,0,0,1,19.49,31.25Zm10.8,0a1.16,1.16,0,1,1-.61-1.52A1.16,1.16,0,0,1,30.29,31.25Zm10.8,0a1.16,1.16,0,1,1-.61-1.52A1.16,1.16,0,0,1,41.09,31.25Z"/></g></g></svg>