<svg xmlns="http://www.w3.org/2000/svg" viewBox="0 0 59 199"><defs><style>.cls-1{fill:#5b8f54;}.cls-2{fill:#fff;}</style></defs><title>sidebtn_01_on</title><g id="レイヤー_2" data-name="レイヤー 2"><g id="レイヤー_1-2" data-name="レイヤー 1"><rect class="cls-1" width="59" height="199"/><path class="cls-2" d="M34,80.09c.09.08.12.14.12.2s-.07.16-.3.25a15.91,15.91,0,0,1-2.28,5.28,14.22,14.22,0,0,1-4.23,3.58,20.82,20.82,0,0,1-2.1,1.07,3.33,3.33,0,0,0-1-1.47c3-1.29,4.86-2.6,6.15-4.43a11.9,11.9,0,0,0,1.74-3.82l-4.17.12L24.77,81c-.62,0-1,0-1.82.07l-.1-1.71c1,0,1.81,0,3,0h2l4.74-.12.22-.25Zm-.75-2.47a10.06,10.06,0,0,1,1.91,1.49l-.75.83a9.38,9.38,0,0,0-1.82-1.56Zm1-1.17a10,10,0,0,1,1.9,1.49l-.75.81a8.92,8.92,0,0,0-1.81-1.54Z"/><path class="cls-2" d="M25.14,105.24h-1.6c0-.55,0-1.44,0-2.62V97.44c0-1.9,0-1.9,0-2.38.4,0,.76,0,1.27,0h7.77c.51,0,.87,0,1.28,0,0,.48,0,1.48,0,2.38v5.18c0,1.24,0,2,0,2.62H32.25v-.76H25.14ZM32.25,103V96.59H25.14V103Z"/><path class="cls-2" d="M32.36,111.38l1.12,1c.11.1.14.15.14.21s-.08.18-.3.27a12.92,12.92,0,0,1-2.18,5.34,12.29,12.29,0,0,1-3.93,3.4c-.54.3-.91.5-1.84.93a3.61,3.61,0,0,0-.92-1.47,11.66,11.66,0,0,0,5.09-3.48A10,10,0,0,0,31.68,113H27.47a16,16,0,0,1-3.23,3.74,4.71,4.71,0,0,0-1.18-1.13,13.49,13.49,0,0,0,3.24-3.88A12.32,12.32,0,0,0,27.47,109l1.5.5c.15.06.21.1.21.19s-.05.15-.33.26l-.33.81c-.2.45-.24.58-.36.8h4Zm.49-1.63a9.83,9.83,0,0,1,1.89,1.51l-.75.81a8.57,8.57,0,0,0-1.8-1.54ZM34,108.46a9.12,9.12,0,0,1,1.89,1.5l-.75.82a9,9,0,0,0-1.8-1.56Z"/></g></g></svg>