<svg xmlns="http://www.w3.org/2000/svg" viewBox="0 0 59 199"><defs><style>.cls-1{fill:#fff100;}.cls-2{fill:#565555;}</style></defs><title>sidebtn_02_off</title><g id="レイヤー_2" data-name="レイヤー 2"><g id="レイヤー_1-2" data-name="レイヤー 1"><rect class="cls-1" width="59" height="199"/><path class="cls-2" d="M28.92,47.09a.38.38,0,0,1,.2.24c0,.12-.07.16-.4.21-.15.35-.37.84-.62,1.35h.17l1.8,0v1.41c-.45,0-1.3-.05-1.8-.05H27.1v.94h1c.57,0,1.34,0,1.79,0v1.41c-.45,0-1.3,0-1.79,0h-1v.34a10.9,10.9,0,0,1,2.42,1.38l-.83,1.26a11.62,11.62,0,0,0-1.59-1.26v0c0,1.53,0,2.76.06,3.51H25.63c0-.81.06-2,.06-3.46a13.27,13.27,0,0,1-2.44,2.5,5.07,5.07,0,0,0-.86-1.26,11,11,0,0,0,3-3h-.67c-.5,0-1.34,0-1.8,0V51.12c.45,0,1.21,0,1.8,0h1v-.94h-1.2c-.49,0-1.33,0-1.8.05V48.86l1.8,0h0a14.83,14.83,0,0,0-.64-1.8l1-.37-1.77,0v-1.4l1.8,0h.78V44.7c0-.42,0-.74,0-1l1.45.11q.27,0,.27.15c0,.09-.07.18-.29.3v1.06h.8l1.79,0v1.4l-1.73,0Zm-3.8-.37a8.57,8.57,0,0,1,.78,1.75l-1.14.42h2a17.59,17.59,0,0,0,.78-2.17Zm6.57-1.61a14.57,14.57,0,0,0,3.69-1l1,1a.38.38,0,0,1,.12.19c0,.09-.09.14-.23.14l-.3,0a19.71,19.71,0,0,1-4.05.88v2.23h3.17c.43,0,1.06,0,1.5,0v1.44l-1.47,0v4.79c0,1.38,0,2.4.06,3.07H33.69c0-.67,0-1.69,0-3.07V49.86H31.94v0c0,4-.59,5.76-2.74,7.83a5.24,5.24,0,0,0-1-1.11,5.9,5.9,0,0,0,2.06-3.48,16.37,16.37,0,0,0,.29-3.8c0-1.54,0-1.54,0-4.6Z"/><path class="cls-2" d="M27.69,67.08c-.08.2-.17.39-.26.58h6.13a9.14,9.14,0,0,0,1.1,0c0,.27,0,.86,0,1.34V72.6c0,.71,0,1.2,0,1.55H33.15v-.29H27.78v.38H26.26c0-.35,0-.86,0-1.59V69.54c-.11.14-.21.29-.33.42a12.18,12.18,0,0,1-2.84,2.57,5.2,5.2,0,0,0-.78-1.22,10.39,10.39,0,0,0,3.78-4.23h-.42c-.84,0-2.17,0-3,.06v-1.4c.78,0,2.13.05,3,.05H29v-.58H26.43c-.78,0-1.77,0-2.4.05V63.91c.63,0,1.62,0,2.4,0H29v-.59h-3.2c-.73,0-2.05,0-2.7.07V62c.62,0,1.92.05,2.7.05H27a9.16,9.16,0,0,0-.84-1.2l1-.69a6.5,6.5,0,0,1,1.26,1.59l-.46.3h2.88a11.78,11.78,0,0,0,.86-1.86l1.42.56a.2.2,0,0,1,.13.18c0,.1-.13.16-.4.17-.29.47-.44.73-.57,1h1.18c.82,0,2,0,2.68-.05v1.42c-.7,0-1.89-.07-2.68-.07h-3.1V64h2.5c.69,0,1.74,0,2.38,0v1.35c-.64,0-1.69-.05-2.38-.05h-2.5v.58h3.2c.95,0,2.22,0,3-.05v1.4c-.8,0-2.07-.06-3-.06Zm5.46,1.82H27.78v.48h5.37Zm0,1.59H27.78V71h5.37Zm0,1.6H27.78v.51h5.37Z"/><path class="cls-2" d="M30.5,79.52c.14.06.17.09.17.17s0,.07-.17.16a30.4,30.4,0,0,1-1.66,5.39c-.9,2-1.81,2.84-3,2.84-1.55,0-2.61-1.51-2.61-3.7a6.25,6.25,0,0,1,1.89-4.45A6.8,6.8,0,0,1,30,78a7.32,7.32,0,0,1,4.19,1.23,4.88,4.88,0,0,1,2,4.17,4.75,4.75,0,0,1-2,4.15A9.62,9.62,0,0,1,31,89a5.18,5.18,0,0,0-.74-1.49A8.57,8.57,0,0,0,33,86.43a3.57,3.57,0,0,0,1.65-3.15,3.7,3.7,0,0,0-2.76-3.7A5.49,5.49,0,0,0,30,79.3Zm-5.75,4.87c0,1.22.48,2.16,1.08,2.16s1.06-.76,1.75-2.31a24.83,24.83,0,0,0,1.2-3.7A5,5,0,0,0,29,79.37,5.33,5.33,0,0,0,24.75,84.39Z"/><path class="cls-2" d="M28.31,99a10.66,10.66,0,0,1,2.4-.32c2.63,0,4.32,1.37,4.32,3.51a3.33,3.33,0,0,1-2.68,3.3,9.59,9.59,0,0,1-1.62.36,5.84,5.84,0,0,0-.57-1.55c2.34-.21,3.27-.82,3.27-2.14S32.33,100,30.48,100a5.85,5.85,0,0,0-2.13.36v.55c0,2.81,0,3.36-.27,3.87-.33.74-.93,1-2,1a2.3,2.3,0,0,1-2.61-2.4,3.93,3.93,0,0,1,1.8-3.16,7.66,7.66,0,0,1,1.62-.86c0-1.11,0-1.89-.06-2.35l-2,0c-.2,0-.48,0-.87,0V95.56c.67,0,1.39.07,1.84.07.26,0,.5,0,1,0V95.3c0-.69,0-1.68-.09-2.17l1.53.06c.15,0,.27.09.27.18s-.06.16-.21.27c0,.22,0,.51,0,.75v.4c0,.15,0,.51,0,.72l.87-.15a19.11,19.11,0,0,0,2-.46l.18,1.41c-.77.21-.89.24-1.33.33l-1.19.21-.54.1Zm-1.43,1.86c-1.26.67-1.85,1.45-1.85,2.46,0,.7.36,1.11,1,1.11s.78-.3.83-1c0-.15,0-.8,0-1.72Zm6.47-6.39a12.19,12.19,0,0,1,3.17,2.82l-1.16,1a13,13,0,0,0-3-2.81Z"/><path class="cls-2" d="M27.4,114.59c0,.32,0,.62,0,.9h1.13c.59,0,1.36,0,1.81,0v1.45l-1.81,0H27.3l-.14.86a10.56,10.56,0,0,1,3,3l-1.25,1.08a11.85,11.85,0,0,0-2.2-2.66,7.72,7.72,0,0,1-.68,1.26A8.8,8.8,0,0,1,23.29,123a5.76,5.76,0,0,0-.84-1.26,6.75,6.75,0,0,0,2.49-2.43,6.61,6.61,0,0,0,.83-2.46H24.49l-1.78,0v-1.45c.45,0,1.21,0,1.78,0h1.4c0-.34,0-.7,0-1.09V113H24.7a12.91,12.91,0,0,1-1.38,2.22,4.27,4.27,0,0,0-.88-1.11,10.56,10.56,0,0,0,1.3-2.31,13.72,13.72,0,0,0,.87-2.73l1.34.3c.19,0,.28.12.28.22s0,.11-.34.23c-.18.64-.38,1.24-.6,1.81H28c.58,0,1.34,0,1.8,0V113c-.47,0-1.31,0-1.8,0H27.4Zm4.89,8H30.75c0-.6,0-1.46,0-2.62v-6.27c0-.9,0-1.9,0-2.38.27,0,.52,0,.88,0H35.2c.34,0,.6,0,.88,0,0,.48,0,.48,0,2.38v5.54c0,1.18,0,2.06,0,2.62H34.52v-1H32.29Zm2.23-3.1v-6.78H32.29v6.78Z"/><path class="cls-2" d="M27.18,128.45c.16,0,.24.11.24.23s-.14.21-.36.25a23.62,23.62,0,0,0-.71,4.55,5.52,5.52,0,0,1,1.44-1,6.54,6.54,0,0,1,3.45-1,4.16,4.16,0,0,1,3.27,1.29,3,3,0,0,1,.61,2,3.81,3.81,0,0,1-1.91,3.49c-1.46.81-2.77,1.05-6.08,1.11a8.86,8.86,0,0,0-.24-1.66l1.07,0c3.49,0,5.5-1.07,5.5-2.93,0-1.18-.92-1.93-2.36-1.93a6.33,6.33,0,0,0-4.82,2.58l-1.41,0v-.23c0-.45,0-.52,0-.66a28,28,0,0,1,.45-4.47c.13-.9.18-1.23.24-2Zm.31-2.62a14.49,14.49,0,0,1,4.66,1.63l-.77,1.43a13.39,13.39,0,0,0-4.47-1.68Z"/><path class="cls-2" d="M31.51,146.2c-.09-2.93-.09-2.93-.16-3.6l1.55.09c.17,0,.27.07.27.21s-.07.19-.27.3c0,1.44.06,2.41.08,2.89,2-.13,2-.13,3.58-.3l.08,1.52-3,.15-.63,0c0,.27,0,.27,0,1,0,.29,0,1.22-.07,1.53a2.2,2.2,0,0,1-.64,1.31,3.41,3.41,0,0,1-2.33.52,6.84,6.84,0,0,0-.38-1.56l.74,0c1,0,1.23-.3,1.23-1.8v-.92l-4.08.23,0,2.11c0,1.77.13,2.79.43,3.21s1,.59,2.62.59a19.86,19.86,0,0,0,3.83-.33c0,.38-.15,1.39-.15,1.61a21.39,21.39,0,0,1-3.56.25c-2.48,0-3.56-.27-4.09-1.07-.41-.6-.6-1.85-.6-4,0-1,0-1.67.05-2.31l-3.53.22-.09-1.53c.93,0,2.15-.06,3.63-.1,0-.56,0-1,0-1.44,0-.66,0-1.17,0-1.83,0-.29,0-.41,0-.66l1.65.07c.16,0,.27.11.27.23s-.09.22-.36.36c0,.49,0,.87,0,1.12-.05,1.17-.06,1.32-.06,2.06Z"/></g></g></svg>